<svg width="178" height="60" viewBox="0 0 178 60" fill="none" xmlns="http://www.w3.org/2000/svg">
<path d="M30 13L4 26L30 39L56 26L30 13Z" fill="white"/>
<path d="M8.7666 31.8501L28.2666 41.6001V47.2334L8.7666 37.7001V31.8501Z" fill="white" fill-opacity="0.85"/>
<path d="M51.2334 31.8501L31.7334 41.6001V47.2334L51.2334 37.7001V31.8501Z" fill="white" fill-opacity="0.7"/>
<path d="M78.7522 31.8246C78.7522 30.9883 77.7734 30.1045 75.8158 29.1732C75.2456 28.9262 74.742 28.6981 74.3048 28.489C73.8867 28.261 73.4116 27.9569 72.8794 27.5768C72.3662 27.1776 71.9386 26.769 71.5965 26.3509C71.2734 25.9327 70.9883 25.4101 70.7412 24.7829C70.5132 24.1557 70.4086 23.481 70.4276 22.7588C70.4276 21.1623 71.0168 19.8034 72.1952 18.682C73.3735 17.5607 74.932 17 76.8706 17C79.4174 17 81.375 17.7317 82.7434 19.1952L80.2917 22.6162C79.7405 22.1031 79.2558 21.7515 78.8377 21.5614C78.4386 21.3713 77.9159 21.2763 77.2697 21.2763C76.6425 21.2763 76.1484 21.4094 75.7873 21.6754C75.4452 21.9415 75.2741 22.3026 75.2741 22.7588C75.2741 23.2719 75.4737 23.7281 75.8728 24.1272C76.2909 24.5263 76.8041 24.8589 77.4123 25.125C78.0395 25.3721 78.7142 25.6857 79.4364 26.0658C80.1586 26.4459 80.8238 26.8545 81.432 27.2917C82.0592 27.7098 82.5724 28.3085 82.9715 29.0877C83.3896 29.848 83.5987 30.7412 83.5987 31.7675C83.5987 33.4781 82.943 34.8845 81.6316 35.9868C80.3582 37.0892 78.7332 37.6404 76.7566 37.6404C75.3121 37.6404 73.9437 37.3458 72.6513 36.7566C71.3399 36.1674 70.4561 35.3692 70 34.3618L72.5943 31.2544C73.1075 31.9196 73.7537 32.4423 74.5329 32.8224C75.3121 33.1835 76.0914 33.364 76.8706 33.364C77.4598 33.364 77.9159 33.231 78.239 32.9649C78.5811 32.6798 78.7522 32.2997 78.7522 31.8246Z" fill="white"/>
<path d="M86.0117 32.4232V20.9057H90.288V24.4693H93.8516V28.4605H90.288V32.2237C90.288 33.174 90.5636 33.6491 91.1148 33.6491C91.7229 33.6491 92.3596 33.402 93.0248 32.9079L94.3077 36.1864C93.2054 37.1557 91.7705 37.6404 90.0029 37.6404C88.6155 37.6404 87.5987 37.2127 86.9525 36.3575C86.3253 35.4832 86.0117 34.1718 86.0117 32.4232Z" fill="white"/>
<path d="M104.434 24.4693H108.711V37.2982H104.434V36.0154C103.579 37.0987 102.353 37.6404 100.757 37.6404C99.5784 37.6404 98.5616 37.2032 97.7063 36.3289C96.87 35.4357 96.4519 34.1718 96.4519 32.5373V24.4693H100.728V31.625C100.728 32.2332 100.861 32.7273 101.127 33.1075C101.412 33.4686 101.831 33.6491 102.382 33.6491C103.123 33.6491 103.807 33.2595 104.434 32.4803V24.4693Z" fill="white"/>
<path d="M124.598 37.2982H120.322V36.2434C119.447 37.0987 118.364 37.5263 117.072 37.5263C115.266 37.5263 113.822 36.9371 112.738 35.7588C111.674 34.5804 111.142 33.0124 111.142 31.0548C111.142 29.0212 111.797 27.3582 113.109 26.0658C114.439 24.7734 116.14 24.1272 118.212 24.1272C119.029 24.1272 119.732 24.2602 120.322 24.5263V17.3421H124.598V37.2982ZM117.955 33.5351C118.849 33.5351 119.637 33.2215 120.322 32.5943V28.6601C119.713 28.299 119.077 28.1184 118.411 28.1184C117.632 28.1184 116.986 28.3655 116.473 28.8596C115.96 29.3538 115.703 30.038 115.703 30.9123C115.703 31.6915 115.922 32.3282 116.359 32.8224C116.815 33.2975 117.347 33.5351 117.955 33.5351Z" fill="white"/>
<path d="M142.52 31.9101L144.259 35.3311C143.65 36.0154 142.748 36.576 141.55 37.0132C140.372 37.4313 139.108 37.6404 137.759 37.6404C134.661 37.6404 132.142 36.6996 130.204 34.818C128.265 32.8984 127.296 30.3991 127.296 27.3202C127.296 24.3173 128.208 21.8465 130.033 19.9079C131.857 17.9693 134.423 17 137.73 17C138.985 17 140.153 17.1901 141.237 17.5702C142.32 17.9503 143.185 18.4539 143.831 19.0811L141.807 22.5022C140.477 21.6849 139.118 21.2763 137.73 21.2763C136.115 21.2763 134.775 21.8085 133.71 22.8728C132.665 23.9181 132.142 25.4006 132.142 27.3202C132.142 29.0687 132.703 30.5227 133.824 31.682C134.946 32.8034 136.4 33.364 138.186 33.364C139.783 33.364 141.227 32.8794 142.52 31.9101Z" fill="white"/>
<path d="M151.052 37.2982H146.775V24.4693H151.052V37.2982ZM146.405 20.0504C146.405 19.3282 146.652 18.7485 147.146 18.3114C147.64 17.8553 148.258 17.6272 148.999 17.6272C149.664 17.6272 150.234 17.8553 150.709 18.3114C151.185 18.7675 151.422 19.3472 151.422 20.0504C151.422 20.8297 151.185 21.4569 150.709 21.932C150.234 22.4072 149.664 22.6447 148.999 22.6447C148.239 22.6447 147.611 22.4167 147.117 21.9605C146.642 21.4854 146.405 20.8487 146.405 20.0504Z" fill="white"/>
<path d="M154.277 32.4232V20.9057H158.553V24.4693H162.117V28.4605H158.553V32.2237C158.553 33.174 158.829 33.6491 159.38 33.6491C159.988 33.6491 160.625 33.402 161.29 32.9079L162.573 36.1864C161.471 37.1557 160.036 37.6404 158.268 37.6404C156.881 37.6404 155.864 37.2127 155.218 36.3575C154.59 35.4832 154.277 34.1718 154.277 32.4232Z" fill="white"/>
<path d="M172.936 24.4693H177.811L172.822 37.2982C171.909 39.5409 171.092 41.0519 170.37 41.8311C169.648 42.6104 168.783 43 167.776 43C166.692 43 165.675 42.6009 164.725 41.8026L166.093 38.5811C166.531 38.8852 166.939 39.0373 167.319 39.0373C167.852 39.0373 168.26 38.6857 168.545 37.9825L168.83 37.2982L163.1 24.4693H168.26L170.455 30.3421C170.607 30.7602 170.769 31.3494 170.94 32.1096C171.035 31.2544 171.14 30.6557 171.254 30.3136L172.936 24.4693Z" fill="white"/>
</svg>
