<svg width="212" height="220" viewBox="0 0 212 220" fill="none" xmlns="http://www.w3.org/2000/svg">
<circle cx="72.7459" cy="88.444" r="4.88887" transform="rotate(90 72.7459 88.444)" fill="#F9A973"/>
<circle cx="72.7459" cy="214.133" r="4.88887" transform="rotate(90 72.7459 214.133)" fill="#F9A973"/>
<circle cx="106.346" cy="88.444" r="4.88887" transform="rotate(90 106.346 88.444)" fill="#F9A973"/>
<circle cx="106.346" cy="214.133" r="4.88887" transform="rotate(90 106.346 214.133)" fill="#F9A973"/>
<circle cx="173.368" cy="88.444" r="4.88887" transform="rotate(90 173.368 88.444)" fill="#F9A973"/>
<circle cx="173.368" cy="214.133" r="4.88887" transform="rotate(90 173.368 214.133)" fill="#F9A973"/>
<circle cx="139.946" cy="88.444" r="4.88887" transform="rotate(90 139.946 88.444)" fill="#F9A973"/>
<circle cx="139.946" cy="214.133" r="4.88887" transform="rotate(90 139.946 214.133)" fill="#F9A973"/>
<circle cx="206.968" cy="88.444" r="4.88887" transform="rotate(90 206.968 88.444)" fill="#F9A973"/>
<circle cx="206.968" cy="214.133" r="4.88887" transform="rotate(90 206.968 214.133)" fill="#F9A973"/>
<circle cx="72.7459" cy="45.7775" r="4.88887" transform="rotate(90 72.7459 45.7775)" fill="#F9A973"/>
<circle cx="72.7459" cy="171.466" r="4.88887" transform="rotate(90 72.7459 171.466)" fill="#F9A973"/>
<circle cx="106.346" cy="45.7775" r="4.88887" transform="rotate(90 106.346 45.7775)" fill="#F9A973"/>
<circle cx="106.346" cy="171.466" r="4.88887" transform="rotate(90 106.346 171.466)" fill="#F9A973"/>
<circle cx="173.368" cy="45.7775" r="4.88887" transform="rotate(90 173.368 45.7775)" fill="#F9A973"/>
<circle cx="173.368" cy="171.466" r="4.88887" transform="rotate(90 173.368 171.466)" fill="#F9A973"/>
<circle cx="139.946" cy="45.7775" r="4.88887" transform="rotate(90 139.946 45.7775)" fill="#F9A973"/>
<circle cx="139.946" cy="171.466" r="4.88887" transform="rotate(90 139.946 171.466)" fill="#F9A973"/>
<circle cx="206.968" cy="45.7775" r="4.88887" transform="rotate(90 206.968 45.7775)" fill="#F9A973"/>
<circle cx="206.968" cy="171.466" r="4.88887" transform="rotate(90 206.968 171.466)" fill="#F9A973"/>
<circle cx="72.7459" cy="4.88887" r="4.88887" transform="rotate(90 72.7459 4.88887)" fill="#F9A973"/>
<circle cx="72.7459" cy="130.578" r="4.88887" transform="rotate(90 72.7459 130.578)" fill="#F9A973"/>
<circle cx="106.346" cy="4.88887" r="4.88887" transform="rotate(90 106.346 4.88887)" fill="#F9A973"/>
<circle cx="106.346" cy="130.578" r="4.88887" transform="rotate(90 106.346 130.578)" fill="#F9A973"/>
<circle cx="173.368" cy="4.88887" r="4.88887" transform="rotate(90 173.368 4.88887)" fill="#F9A973"/>
<circle cx="173.368" cy="130.578" r="4.88887" transform="rotate(90 173.368 130.578)" fill="#F9A973"/>
<circle cx="139.946" cy="4.88887" r="4.88887" transform="rotate(90 139.946 4.88887)" fill="#F9A973"/>
<circle cx="139.946" cy="130.578" r="4.88887" transform="rotate(90 139.946 130.578)" fill="#F9A973"/>
<circle cx="206.968" cy="4.88887" r="4.88887" transform="rotate(90 206.968 4.88887)" fill="#F9A973"/>
<circle cx="206.968" cy="130.578" r="4.88887" transform="rotate(90 206.968 130.578)" fill="#F9A973"/>
<circle cx="41.6351" cy="88.444" r="4.88887" transform="rotate(90 41.6351 88.444)" fill="#F9A973"/>
<circle cx="41.6351" cy="214.133" r="4.88887" transform="rotate(90 41.6351 214.133)" fill="#F9A973"/>
<circle cx="41.6351" cy="45.7775" r="4.88887" transform="rotate(90 41.6351 45.7775)" fill="#F9A973"/>
<circle cx="41.6351" cy="171.466" r="4.88887" transform="rotate(90 41.6351 171.466)" fill="#F9A973"/>
<circle cx="41.6351" cy="4.88887" r="4.88887" transform="rotate(90 41.6351 4.88887)" fill="#F9A973"/>
<circle cx="41.6351" cy="130.578" r="4.88887" transform="rotate(90 41.6351 130.578)" fill="#F9A973"/>
<circle cx="7.85674" cy="88.444" r="4.88887" transform="rotate(90 7.85674 88.444)" fill="#F9A973"/>
<circle cx="7.85674" cy="214.133" r="4.88887" transform="rotate(90 7.85674 214.133)" fill="#F9A973"/>
<circle cx="7.85674" cy="45.7776" r="4.88887" transform="rotate(90 7.85674 45.7776)" fill="#F9A973"/>
<circle cx="7.85674" cy="171.467" r="4.88887" transform="rotate(90 7.85674 171.467)" fill="#F9A973"/>
<circle cx="7.85674" cy="4.88887" r="4.88887" transform="rotate(90 7.85674 4.88887)" fill="#F9A973"/>
<circle cx="7.85674" cy="130.578" r="4.88887" transform="rotate(90 7.85674 130.578)" fill="#F9A973"/>
</svg>
