<svg width="20" height="20" viewBox="0 0 20 20" fill="none" xmlns="http://www.w3.org/2000/svg">
<path fill-rule="evenodd" clip-rule="evenodd" d="M10 20C15.5228 20 20 15.5228 20 10C20 4.47715 15.5228 0 10 0C4.47715 0 0 4.47715 0 10C0 15.5228 4.47715 20 10 20ZM10 18.6463C14.7753 18.6463 18.6463 14.7753 18.6463 10C18.6463 5.22483 14.7753 1.35376 10 1.35376C5.22483 1.35376 1.35376 5.22483 1.35376 10C1.35376 14.7753 5.22483 18.6463 10 18.6463Z" fill="#151617"/>
<path fill-rule="evenodd" clip-rule="evenodd" d="M10.0219 7.20527C10.5405 7.20527 10.9608 6.78493 10.9608 6.26641C10.9608 5.74789 10.5405 5.32755 10.0219 5.32755C9.50341 5.32755 9.08307 5.74789 9.08307 6.26641C9.08307 6.78493 9.50341 7.20527 10.0219 7.20527ZM10.0001 8.34057C9.61423 8.34057 9.30141 8.65338 9.30141 9.03926V13.7117C9.30141 14.0976 9.61423 14.4104 10.0001 14.4104C10.386 14.4104 10.6988 14.0976 10.6988 13.7117V9.03926C10.6988 8.65338 10.386 8.34057 10.0001 8.34057Z" fill="#151617"/>
</svg>
