<svg width="24" height="24" viewBox="0 0 24 24" fill="none" xmlns="http://www.w3.org/2000/svg">
<path d="M17.2237 17.6507H15.1393V16.4703C14.1849 17.4247 13.0213 17.9018 11.6484 17.9018C9.94064 17.9018 8.5761 17.3661 7.55479 16.2945C6.55023 15.223 6.04795 13.7915 6.04795 12C6.04795 10.3425 6.65069 8.94445 7.85617 7.80594C9.07839 6.66743 10.5936 6.09817 12.4018 6.09817C14.21 6.09817 15.7922 6.52512 17.1484 7.379V15.7671H17.6758C18.7139 15.7671 19.5426 15.3067 20.1621 14.3858C20.7983 13.4483 21.1164 12.2763 21.1164 10.8699C21.1164 8.59285 20.2877 6.69254 18.6301 5.16895C17.0061 3.64536 14.8798 2.88356 12.2511 2.88356C9.55556 2.88356 7.3204 3.73744 5.54566 5.44521C3.77093 7.11948 2.88356 9.30441 2.88356 12C2.88356 14.5951 3.7793 16.7633 5.57078 18.5046C7.39574 20.2458 9.62253 21.1164 12.2511 21.1164C13.2055 21.1164 14.1096 21.016 14.9635 20.8151L15.089 22.6735C14.1514 22.8912 13.2055 23 12.2511 23C9.01979 23 6.33257 21.9536 4.1895 19.8607C2.06317 17.7846 1 15.1644 1 12C1 8.90259 2.06317 6.29909 4.1895 4.1895C6.31583 2.06317 9.00304 1 12.2511 1C15.3318 1 17.8935 1.92085 19.9361 3.76256C21.9787 5.60426 23 7.96499 23 10.8447C23 12.7032 22.4893 14.3021 21.468 15.6416C20.43 16.981 19.0152 17.6507 17.2237 17.6507ZM11.9749 16.0183C12.5609 16.0183 13.1385 15.876 13.7078 15.5913C14.2938 15.3067 14.7709 14.9551 15.1393 14.5365V8.71005C14.2686 8.22451 13.3478 7.98174 12.3767 7.98174C11.1377 7.98174 10.1248 8.38356 9.3379 9.18722C8.56773 9.95738 8.18265 10.9285 8.18265 12.1005C8.18265 13.3059 8.52588 14.2603 9.21233 14.9635C9.89878 15.6667 10.8196 16.0183 11.9749 16.0183Z" fill="black"/>
</svg>
