<svg width="680" height="280" viewBox="0 0 680 280" fill="none" xmlns="http://www.w3.org/2000/svg">
<g clip-path="url(#clip0_184_1244)">
<path d="M300.382 239.335C284.876 215.576 277.124 182.564 277.124 140.299C277.124 98.0334 284.751 65.1465 300.007 41.6379C315.512 17.8793 338.146 6 367.907 6C397.417 6 419.925 17.8793 435.431 41.6379C450.937 65.3966 458.69 98.2835 458.69 140.299C458.69 182.814 451.062 215.826 435.806 239.335C420.551 262.843 398.168 274.598 368.657 274.598C338.896 274.598 316.138 262.843 300.382 239.335ZM337.145 140.299C337.145 194.819 347.649 222.079 368.657 222.079C379.411 222.079 387.038 215.951 391.54 203.697C396.292 191.442 398.668 170.31 398.668 140.299C398.668 110.288 396.292 89.1552 391.54 76.9007C387.038 64.6463 379.161 58.5191 367.907 58.5191C357.153 58.5191 349.275 64.8964 344.273 77.651C339.521 90.1556 337.145 111.038 337.145 140.299Z" fill="#AB8BE9"/>
<path d="M435.806 239.147C451.062 215.639 458.689 182.627 458.689 140.111H398.668C398.668 170.122 396.292 191.255 391.54 203.509C387.038 215.764 379.411 221.891 368.657 221.891V274.41C398.167 274.41 420.551 262.656 435.806 239.147Z" fill="#F9A973"/>
<path d="M466.538 18.1919C412.153 18.1919 368.065 62.2799 368.065 116.665C368.065 122.257 368.531 127.74 369.426 133.077L521.871 35.1963C506.101 24.4645 487.052 18.1919 466.538 18.1919Z" fill="#E47122"/>
<path d="M335.241 155.117L521.871 35.0731" stroke="#3D0B9D" stroke-width="4"/>
<path d="M277.124 140.299C277.124 182.564 284.876 215.576 300.382 239.335C316.138 262.843 338.896 274.598 368.657 274.598V222.079C347.649 222.079 337.145 194.819 337.145 140.299C337.145 111.038 339.521 90.1556 344.273 77.651C349.275 64.8964 357.153 58.5191 367.907 58.5191V6C338.146 6 315.512 17.8793 300.007 41.6379C284.751 65.1465 277.124 98.0334 277.124 140.299Z" fill="#AB8BE9"/>
<path d="M649.239 271.409H592.968V215.139H473.675V173.123L567.459 8.81354H631.982L546.076 158.868H592.968V102.598H649.239V158.868H680V215.139H649.239V271.409Z" fill="#AB8BE9"/>
<circle cx="591.271" cy="152.303" r="62.8353" fill="#F5E180"/>
<path d="M680 158.868H649.239H621.104V215.139H649.239H680V158.868Z" fill="#F9A973"/>
<path d="M592.968 271.409H649.239V215.138V158.868V102.598H592.968V158.868V215.138V271.409Z" fill="#AB8BE9"/>
<path d="M227.577 271.409H171.306V215.139H52.0127V173.123L145.797 8.81354H210.32L124.414 158.868H171.306V102.598H227.577V158.868H258.338V215.139H227.577V271.409Z" fill="#AB8BE9"/>
<path d="M129.753 37.65L110.775 70.52L92.4535 38.8111L49.8159 62.7166L68.968 95.6874L30.8384 95.5866L31.4544 144.465L68.415 143.89L49.0986 177.347L91.1832 201.645L110.5 168.188L129.067 200.821L170.197 176.828L151.968 143.608L189.513 143.371L190.066 95.1679L152.86 94.8175L171.838 61.9476L129.753 37.65Z" fill="#F5E180"/>
<path d="M171.306 271.409H227.577V215.138H258.338V158.868H227.577V102.598H171.306V158.868H124.414H60.1492L52.0127 173.123V215.138H171.306V271.409Z" fill="#AB8BE9"/>
</g>
<defs>
<clipPath id="clip0_184_1244">
<rect width="680" height="280" fill="white"/>
</clipPath>
</defs>
</svg>
