<?xml version="1.0" encoding="utf-8"?><svg viewBox="0 0 24 18" xmlns="http://www.w3.org/2000/svg" xmlns:xlink="http://www.w3.org/1999/xlink"><style>:root>svg{display:none}:root>svg:target{display:block}</style><svg viewBox="0 0 14 10" id="check" xmlns="http://www.w3.org/2000/svg"><path d="M13.696.304a.962.962 0 010 1.404L5.705 9.696a.963.963 0 01-1.405 0L.304 5.702a.962.962 0 010-1.404.963.963 0 011.405 0l3.278 3.276L12.29.304a.963.963 0 011.405 0z"/></svg><svg viewBox="0 0 20 18" id="decor" xmlns="http://www.w3.org/2000/svg"><path d="M.4 9h5.512c0 2.85-2.362 5.513-5.512 5.513v2.7c4.331 0 8.212-3.432 8.212-8.213V.788H.4V9zm10.987 0H16.9c0 2.85-2.362 5.513-5.512 5.513v2.7c4.33 0 8.212-3.432 8.212-8.213V.788h-8.213V9z"/></svg><svg viewBox="0 0 24 12" id="review-arrow" xmlns="http://www.w3.org/2000/svg"><path d="M0 6h23m0 0L17.617.73M23 6l-5.383 5.27"/></svg></svg>